<svg width="32" height="32" viewBox="0 0 32 32" fill="none" xmlns="http://www.w3.org/2000/svg">
    <path fill-rule="evenodd" clip-rule="evenodd"
        d="M6.36345 1.39736C4.05878 1.79139 2.16939 3.52444 1.52077 5.83934C1.39322 6.29445 1.37342 6.68961 1.37342 8.77826V11.1914L1.6374 11.4275C2.06278 11.808 2.74366 11.6898 2.93449 11.2023C2.98792 11.0659 3.03504 10.1088 3.0533 8.79193C3.08054 6.82252 3.10067 6.55557 3.25779 6.0762C3.68989 4.75829 4.78589 3.66365 6.10173 3.23605C6.57044 3.08373 6.87095 3.06116 8.88715 3.02727C11.3451 2.98601 11.4113 2.97364 11.5989 2.52015C11.7314 2.20014 11.6413 1.78282 11.3882 1.54475L11.181 1.3498L8.98487 1.33726C7.77701 1.3303 6.59736 1.3574 6.36345 1.39736ZM20.8434 1.38531C20.3128 1.61027 20.1547 2.36265 20.5541 2.76243L20.7811 2.98957L23.0799 3.02428C25.2901 3.0576 25.4008 3.06683 25.9527 3.26388C27.2839 3.73937 28.1703 4.62838 28.7165 6.03583C28.8181 6.29768 28.8536 6.84864 28.8896 8.7256C28.9325 10.9574 28.9442 11.0984 29.1044 11.3142C29.4884 11.8312 30.3131 11.7214 30.5643 11.1198C30.6702 10.866 30.6834 10.4861 30.6503 8.63314C30.6055 6.12029 30.5545 5.82082 29.9677 4.62595C29.651 3.981 29.4727 3.73929 28.8586 3.12256C28.2399 2.50122 28.008 2.32933 27.3589 2.01077C26.0992 1.39243 25.9382 1.36565 23.3176 1.33758C22.0507 1.32399 20.9373 1.34543 20.8434 1.38531ZM10.2324 10.1995L9.98137 10.4342V12.4988V14.5634L10.1856 14.8063C10.4421 15.1113 10.766 15.1878 11.1396 15.0316C11.6465 14.8197 11.6787 14.6663 11.6787 12.4685V10.5149L11.4039 10.2399C11.035 9.87072 10.6002 9.85575 10.2324 10.1995ZM15.4053 10.1995L15.1542 10.4342V13.2356C15.1542 15.4738 15.1311 16.0923 15.0394 16.3122C14.9206 16.5967 14.5631 16.8408 14.2651 16.8408C13.9683 16.8408 13.6097 17.0848 13.492 17.3669C13.3379 17.7359 13.4234 18.0925 13.7274 18.3484C13.9541 18.5394 14.0256 18.5552 14.505 18.5208C15.4059 18.456 16.1789 17.9272 16.5865 17.0965L16.8112 16.6385L16.835 13.5804L16.8588 10.5222L16.5804 10.2436C16.2077 9.87056 15.7745 9.85438 15.4053 10.1995ZM20.5781 10.1995L20.3271 10.4342V12.4988V14.5634L20.5313 14.8063C20.7878 15.1113 21.1117 15.1878 21.4853 15.0316C21.9922 14.8197 22.0244 14.6663 22.0244 12.4685V10.5149L21.7496 10.2399C21.3807 9.87072 20.9459 9.85575 20.5781 10.1995ZM1.60782 20.5942L1.33301 20.8692V23.0244C1.33301 25.2983 1.40308 25.939 1.74837 26.822C2.22201 28.0333 3.38348 29.3247 4.54163 29.9278C5.72282 30.5428 6.09292 30.6095 8.56013 30.6528C11.0128 30.6958 11.2669 30.6608 11.5206 30.2444C11.72 29.9171 11.7201 29.6503 11.5209 29.3234C11.4154 29.1501 11.263 29.0375 11.0565 28.9801C10.8793 28.9308 9.89416 28.8941 8.72857 28.8933C7.30482 28.8923 6.58855 28.86 6.3038 28.784C4.89735 28.4087 3.70638 27.2831 3.25949 25.9066C3.10544 25.4322 3.08159 25.1236 3.03835 23.0414L2.98994 20.7079L2.74746 20.5139C2.37736 20.2179 1.95407 20.2476 1.60782 20.5942ZM11.1701 20.4822C10.8622 20.7246 10.7529 21.1263 10.8995 21.4772C11.1625 22.1074 12.8313 23.176 14.1035 23.5292C14.5197 23.6448 14.9226 23.6745 16.0433 23.6725C17.4151 23.67 17.481 23.6621 18.228 23.4121C19.0538 23.1356 19.7328 22.7607 20.4554 22.1821C20.9712 21.7692 21.1353 21.5041 21.1353 21.0837C21.1353 20.4775 20.3589 20.1011 19.8399 20.4557C19.73 20.5308 19.479 20.7322 19.282 20.9034C18.4878 21.5936 17.2446 22.0151 16.0029 22.0151C14.69 22.0151 13.5451 21.6059 12.5373 20.7766C11.9087 20.2592 11.5511 20.1823 11.1701 20.4822ZM29.3082 20.4511C28.9341 20.7133 28.8946 20.9732 28.8946 23.1713C28.8946 24.7496 28.8662 25.3288 28.7709 25.6951C28.4 27.1202 27.2686 28.2916 25.835 28.7349C25.3823 28.8749 25.0796 28.8939 23.2889 28.8943C22.1454 28.8945 21.1256 28.9311 20.9571 28.9779C20.3188 29.1553 20.1166 29.8687 20.5628 30.3688L20.7985 30.633L22.8279 30.6572C25.0568 30.6837 25.9266 30.5914 26.8093 30.2346C28.2616 29.6476 29.4699 28.4928 30.1096 27.0809C30.551 26.1067 30.6072 25.7238 30.6506 23.4002C30.694 21.0767 30.6566 20.769 30.2962 20.4853C30.0401 20.2836 29.5702 20.2674 29.3082 20.4511Z"
        fill="currentColor" stroke="currentColor" stroke-width="0.4" />
</svg>
    